<?xml version="1.0" encoding="UTF-8"?>
<svg version="1.1" xmlns="http://www.w3.org/2000/svg" width="87" height="62">
<path d="M0 0 C0.495 0.99 0.495 0.99 1 2 C2.98 2 4.96 2 7 2 C7 1.34 7 0.68 7 0 C13.89264531 -1.45108322 22.18485499 -2.0445435 29 0 C30.375 2.0625 30.375 2.0625 31 4 C31.99 4 32.98 4 34 4 C34.66666667 6 35.33333333 8 36 10 C36.350625 10.845625 36.70125 11.69125 37.0625 12.5625 C39.04490767 19.83132814 37.97238719 27.35110395 37.12109375 34.75 C36.81202386 37.03624382 36.81202386 37.03624382 38 39 C39.65 38.67 41.3 38.34 43 38 C43.33 37.01 43.66 36.02 44 35 C45 36 45 36 45.1875 38.3125 C45 41 45 41 43 45 C39.7 45 36.4 45 33 45 C31.38285322 41.76570644 30.66753574 38.52840318 30 35 C29.690625 35.78375 29.38125 36.5675 29.0625 37.375 C27.89993102 40.24722925 26.73241592 42.40137612 25 45 C24.01 44.505 24.01 44.505 23 44 C22.7525 44.969375 22.505 45.93875 22.25 46.9375 C21.8375 47.948125 21.425 48.95875 21 50 C18.875 50.875 18.875 50.875 17 51 C16.9071875 51.928125 16.9071875 51.928125 16.8125 52.875 C16 55 16 55 14 56.125 C13.01 56.41375 12.02 56.7025 11 57 C10.30003906 57.20882812 9.60007813 57.41765625 8.87890625 57.6328125 C2.99048634 59.20173383 -0.49587419 58.7520629 -6 56 C-6.66 55.34 -7.32 54.68 -8 54 C-8.66 53.67 -9.32 53.34 -10 53 C-10.97151611 51.75497789 -11.90414653 50.47932723 -12.8125 49.1875 C-15.22412832 45.88706518 -17.63356026 43.3763104 -21 41 C-20.67 40.34 -20.34 39.68 -20 39 C-20.66 38.67 -21.32 38.34 -22 38 C-21.67 37.34 -21.34 36.68 -21 36 C-21.66 35.67 -22.32 35.34 -23 35 C-22.67 34.01 -22.34 33.02 -22 32 C-22.66 31.67 -23.32 31.34 -24 31 C-23.67 30.34 -23.34 29.68 -23 29 C-23.66 28.67 -24.32 28.34 -25 28 C-25.4021875 26.7625 -25.4021875 26.7625 -25.8125 25.5 C-26.75352289 22.78497237 -26.75352289 22.78497237 -29.375 22.0625 C-32.2750317 21.99345163 -33.61733504 22.38319163 -36 24 C-36.33 24.66 -36.66 25.32 -37 26 C-37.66 26 -38.32 26 -39 26 C-39 24.02 -39 22.04 -39 20 C-38.01 19.67 -37.02 19.34 -36 19 C-36 18.34 -36 17.68 -36 17 C-34.02 16.67 -32.04 16.34 -30 16 C-30.20625 15.21625 -30.4125 14.4325 -30.625 13.625 C-30.74875 12.75875 -30.8725 11.8925 -31 11 C-30.34 10.34 -29.68 9.68 -29 9 C-28.67 8.34 -28.34 7.68 -28 7 C-26.4840625 5.7625 -26.4840625 5.7625 -24.9375 4.5 C-23.968125 3.675 -22.99875 2.85 -22 2 C-22 1.34 -22 0.68 -22 0 C-14.91383061 -1.49182513 -7.0568246 -1.8094422 0 0 Z M-24 11 C-25.03855787 13.36124949 -25.49894514 15.4446202 -26 18 C-25.030625 18.556875 -24.06125 19.11375 -23.0625 19.6875 C-20 22 -20 22 -19.1875 24.5625 C-19.125625 25.366875 -19.06375 26.17125 -19 27 C-18.67 27.99 -18.34 28.98 -18 30 C-17.65772583 31.33106622 -17.32248257 32.66400079 -17 34 C-15.68 34.33 -14.36 34.66 -13 35 C-12.75765625 34.34773438 -12.5153125 33.69546875 -12.265625 33.0234375 C-10.29129327 27.87498782 -8.2344716 23.46134014 -5 19 C-4.67 18.34 -4.34 17.68 -4 17 C-2.68088303 14.65843494 -1.33806736 12.33082701 0 10 C-3.48381136 6.26734497 -5.82988352 4.18084304 -11 3.75 C-16.32711953 4.19392663 -20.47160225 6.99423079 -24 11 Z M9 8 C8.90093596 9.92290355 8.90093596 9.92290355 9.25 12 C9.33765625 12.70125 9.4253125 13.4025 9.515625 14.125 C9.8896835 16.22819545 9.8896835 16.22819545 12 18 C13.54571278 20.31856917 14.79618552 22.50638429 16 25 C16.66 24.34 17.32 23.68 18 23 C20 21 20 21 23.125 20.875 C24.548125 20.936875 24.548125 20.936875 26 21 C26 23.31 26 25.62 26 28 C30.32753146 24.22317672 30.32753146 24.22317672 32 19 C32.144375 18.071875 32.28875 17.14375 32.4375 16.1875 C31.80763394 11.59847585 29.48882021 8.95773517 26 6 C23.29191849 4.96747064 23.29191849 4.96747064 21 5 C21 4.67 21 4.34 21 4 C15.696608 3.75893673 12.78307355 4.21692645 9 8 Z M2 15 C0.5393715 17.64738916 0 18.89448334 0 22 C1.485 22.99 1.485 22.99 3 24 C3 24.66 3 25.32 3 26 C4.65 26.33 6.3 26.66 8 27 C9.3070065 24.92179558 9.3070065 24.92179558 8.3125 22.125 C6.95830438 18.90072473 5.65692689 17.22839029 3 15 C2.67 15 2.34 15 2 15 Z M-2 22 C-2 22.66 -2 23.32 -2 24 C-1.01 23.67 -0.02 23.34 1 23 C0.01 22.67 -0.98 22.34 -2 22 Z M-2 25 C-2 25.66 -2 26.32 -2 27 C-1.34 27 -0.68 27 0 27 C0 26.34 0 25.68 0 25 C-0.66 25 -1.32 25 -2 25 Z M10 26 C9.01 27.485 9.01 27.485 8 29 C8.99 29 9.98 29 11 29 C10.67 28.01 10.34 27.02 10 26 Z M4 27 C5 29 5 29 5 29 Z M-3 27 C-3.66 27.66 -4.32 28.32 -5 29 C-3.68 28.67 -2.36 28.34 -1 28 C-1.66 27.67 -2.32 27.34 -3 27 Z M25 29 C25.33 30.32 25.66 31.64 26 33 C26.33 31.68 26.66 30.36 27 29 C26.34 29 25.68 29 25 29 Z M6 31 C5.67 32.65 5.34 34.3 5 36 C6.32 36.33 7.64 36.66 9 37 C9.99 35.35 10.98 33.7 12 32 C9.03 31.505 9.03 31.505 6 31 Z M1 29 C1 29.99 1 30.98 1 32 C-0.65 32 -2.3 32 -4 32 C-2.88145414 35.72614153 -2.88145414 35.72614153 0 38 C2.3329866 38.04022391 4.66706666 38.04320247 7 38 C6.360625 37.814375 5.72125 37.62875 5.0625 37.4375 C3 36 3 36 2.25 32.375 C2.12625 30.704375 2.12625 30.704375 2 29 C1.67 29 1.34 29 1 29 Z M-16 35 C-16 35.66 -16 36.32 -16 37 C-15.34 37 -14.68 37 -14 37 C-14 36.34 -14 35.68 -14 35 C-14.66 35 -15.32 35 -16 35 Z M19 30 C18.443125 31.03125 17.88625 32.0625 17.3125 33.125 C16.54558823 34.4189989 15.77465605 35.71062232 15 37 C14.34 38.134375 13.68 39.26875 13 40.4375 C8.94692198 43.89950414 6.02085279 43.77924424 0.81640625 43.54296875 C-3.02362198 42.80265818 -4.6462486 41.03709858 -7 38 C-7.99 38 -8.98 38 -10 38 C-10.66 39.65 -11.32 41.3 -12 43 C-9.31158141 45.25245881 -7.35358125 46.88213958 -4 48 C-2.8125 50.0625 -2.8125 50.0625 -2 52 C5.51295818 52.49195567 5.51295818 52.49195567 12 49 C12 48.34 12 47.68 12 47 C12.86625 46.87625 12.86625 46.87625 13.75 46.75 C16.76433488 45.74522171 18.01626437 44.47966954 20 42 C20.48195275 38.95559865 20.48195275 38.95559865 20.25 35.75 C20.19585937 34.13351563 20.19585937 34.13351563 20.140625 32.484375 C20.09421875 31.66453125 20.0478125 30.8446875 20 30 C19.67 30 19.34 30 19 30 Z " fill="#B92731" transform="translate(42,2)"/>
<path d="M0 0 C0.495 0.99 0.495 0.99 1 2 C2.65 2 4.3 2 6 2 C5.505 2.7425 5.01 3.485 4.5 4.25 C2.68076525 7.06318188 2.68076525 7.06318188 3 11 C2.34 11 1.68 11 1 11 C1.495 15.455 1.495 15.455 2 20 C1.01 20.495 1.01 20.495 0 21 C0.495 21.99 0.495 21.99 1 23 C0.01 23.33 -0.98 23.66 -2 24 C-2 24.99 -2 25.98 -2 27 C-1.01 27 -0.02 27 1 27 C1 28.32 1 29.64 1 31 C-1.64 31 -4.28 31 -7 31 C-7.103125 31.721875 -7.20625 32.44375 -7.3125 33.1875 C-8 36 -8 36 -9.6875 38.5625 C-11.28011817 40.87948336 -11.28011817 40.87948336 -10.5 43.1875 C-9.07795257 45.2000971 -9.07795257 45.2000971 -6.5 46 C-4 47 -4 47 -3.0625 48.9375 C-1.39488869 52.17462784 0.62720649 52.77352963 4 54 C7.01962912 54.23152132 9.97883518 54.18126989 13 54 C13 54.99 13 55.98 13 57 C11.33524314 57.34274406 9.66804677 57.67364302 8 58 C6.5459375 58.3403125 6.5459375 58.3403125 5.0625 58.6875 C0.82283176 59.12011921 -2.24647129 57.87676435 -6 56 C-6.66 55.34 -7.32 54.68 -8 54 C-8.66 53.67 -9.32 53.34 -10 53 C-10.97151611 51.75497789 -11.90414653 50.47932723 -12.8125 49.1875 C-15.22412832 45.88706518 -17.63356026 43.3763104 -21 41 C-20.67 40.34 -20.34 39.68 -20 39 C-20.66 38.67 -21.32 38.34 -22 38 C-21.67 37.34 -21.34 36.68 -21 36 C-21.66 35.67 -22.32 35.34 -23 35 C-22.67 34.01 -22.34 33.02 -22 32 C-22.66 31.67 -23.32 31.34 -24 31 C-23.67 30.34 -23.34 29.68 -23 29 C-23.66 28.67 -24.32 28.34 -25 28 C-25.4021875 26.7625 -25.4021875 26.7625 -25.8125 25.5 C-26.75352289 22.78497237 -26.75352289 22.78497237 -29.375 22.0625 C-32.2750317 21.99345163 -33.61733504 22.38319163 -36 24 C-36.33 24.66 -36.66 25.32 -37 26 C-37.66 26 -38.32 26 -39 26 C-39 24.02 -39 22.04 -39 20 C-38.01 19.67 -37.02 19.34 -36 19 C-36 18.34 -36 17.68 -36 17 C-34.02 16.67 -32.04 16.34 -30 16 C-30.20625 15.21625 -30.4125 14.4325 -30.625 13.625 C-30.74875 12.75875 -30.8725 11.8925 -31 11 C-30.34 10.34 -29.68 9.68 -29 9 C-28.67 8.34 -28.34 7.68 -28 7 C-26.4840625 5.7625 -26.4840625 5.7625 -24.9375 4.5 C-23.968125 3.675 -22.99875 2.85 -22 2 C-22 1.34 -22 0.68 -22 0 C-14.91383061 -1.49182513 -7.0568246 -1.8094422 0 0 Z M-24 11 C-25.03855787 13.36124949 -25.49894514 15.4446202 -26 18 C-25.030625 18.556875 -24.06125 19.11375 -23.0625 19.6875 C-20 22 -20 22 -19.1875 24.5625 C-19.125625 25.366875 -19.06375 26.17125 -19 27 C-18.67 27.99 -18.34 28.98 -18 30 C-17.65772583 31.33106622 -17.32248257 32.66400079 -17 34 C-15.68 34.33 -14.36 34.66 -13 35 C-12.75765625 34.34773438 -12.5153125 33.69546875 -12.265625 33.0234375 C-10.29129327 27.87498782 -8.2344716 23.46134014 -5 19 C-4.67 18.34 -4.34 17.68 -4 17 C-2.68088303 14.65843494 -1.33806736 12.33082701 0 10 C-3.48381136 6.26734497 -5.82988352 4.18084304 -11 3.75 C-16.32711953 4.19392663 -20.47160225 6.99423079 -24 11 Z M-3 27 C-3.66 27.66 -4.32 28.32 -5 29 C-3.68 28.67 -2.36 28.34 -1 28 C-1.66 27.67 -2.32 27.34 -3 27 Z M-16 35 C-16 35.66 -16 36.32 -16 37 C-15.34 37 -14.68 37 -14 37 C-14 36.34 -14 35.68 -14 35 C-14.66 35 -15.32 35 -16 35 Z " fill="#3C85E4" transform="translate(42,2)"/>
<path d="M0 0 C0.99 0.33 1.98 0.66 3 1 C3.33 3.31 3.66 5.62 4 8 C4.66 8 5.32 8 6 8 C6.77772405 10.33317216 7.42415568 12.61435923 8 15 C8.66 15 9.32 15 10 15 C10.33 14.34 10.66 13.68 11 13 C14.01996783 12.45091494 16.92619395 12 20 12 C20 14.97 20 17.94 20 21 C19.34 21 18.68 21 18 21 C17.505 19.515 17.505 19.515 17 18 C14.49962266 20.17424117 13.56371414 21.73045798 13 25 C12.34 25 11.68 25 11 25 C10.5359375 25.928125 10.5359375 25.928125 10.0625 26.875 C7.81067629 31.37864742 5.78626243 34.05895076 1 36 C-1.796875 36.1953125 -1.796875 36.1953125 -4.75 36.125 C-6.22726563 36.09792969 -6.22726563 36.09792969 -7.734375 36.0703125 C-8.48203125 36.04710937 -9.2296875 36.02390625 -10 36 C-10 35.34 -10 34.68 -10 34 C-11.64333504 32.96210419 -13.31243867 31.96432076 -15 31 C-15.66 30.34 -16.32 29.68 -17 29 C-16.34 29 -15.68 29 -15 29 C-14.67 27.02 -14.34 25.04 -14 23 C-11.36 23 -8.72 23 -6 23 C-6 23.33 -6 23.66 -6 24 C-7.65 24 -9.3 24 -11 24 C-10.34 24.33 -9.68 24.66 -9 25 C-8.67 25.99 -8.34 26.98 -8 28 C-6.02 28.33 -4.04 28.66 -2 29 C-2.70962891 28.40058594 -2.70962891 28.40058594 -3.43359375 27.7890625 C-5.31929574 25.63531808 -5.59301422 24.17368222 -6.0625 21.375 C-6.42335982 19.02139184 -6.42335982 19.02139184 -7 17 C-7.66 16.67 -8.32 16.34 -9 16 C-7.02 15.34 -5.04 14.68 -3 14 C-3.33 15.32 -3.66 16.64 -4 18 C-2.35 18 -0.7 18 1 18 C0.67 16.02 0.34 14.04 0 12 C-0.66 12 -1.32 12 -2 12 C-2.96398647 9.1080406 -3 7.0005625 -3 4 C-2.34 3.34 -1.68 2.68 -1 2 C-0.67 1.34 -0.34 0.68 0 0 Z M3 18 C2.01 19.485 2.01 19.485 1 21 C1.99 21 2.98 21 4 21 C3.67 20.01 3.34 19.02 3 18 Z M-3 19 C-2 21 -2 21 -2 21 Z M-1 23 C-1.33 24.65 -1.66 26.3 -2 28 C-0.68 28.33 0.64 28.66 2 29 C2.99 27.35 3.98 25.7 5 24 C2.03 23.505 2.03 23.505 -1 23 Z " fill="#BD2832" transform="translate(49,10)"/>
<path d="M0 0 C0.33 0.99 0.66 1.98 1 3 C1.66 3 2.32 3 3 3 C2.34 5.64 1.68 8.28 1 11 C3.01600775 12.58400609 4.84876188 13.93086257 7.1875 15 C9 16 9 16 10 19 C14.95481327 22.34449896 19.25610776 22.34463353 25 22 C25 22.99 25 23.98 25 25 C23.33524314 25.34274406 21.66804677 25.67364302 20 26 C18.5459375 26.3403125 18.5459375 26.3403125 17.0625 26.6875 C12.82283176 27.12011921 9.75352871 25.87676435 6 24 C5.34 23.34 4.68 22.68 4 22 C3.34 21.67 2.68 21.34 2 21 C0.43706483 19.01912117 -1.0047573 16.96772053 -2.46484375 14.91015625 C-4.03660941 12.7581558 -4.03660941 12.7581558 -7 11 C-7.1875 7.875 -7.1875 7.875 -7 5 C-5.35 5 -3.7 5 -2 5 C-1.34 3.35 -0.68 1.7 0 0 Z " fill="#3574C2" transform="translate(30,34)"/>
<path d="M0 0 C1.66482422 0.00966797 1.66482422 0.00966797 3.36328125 0.01953125 C6.5644835 0.18128413 9.55973519 0.48581669 12.6875 1.1875 C14.71560813 3.89164417 15.13804809 6.89078856 15.6875 10.1875 C14.6975 10.5175 13.7075 10.8475 12.6875 11.1875 C11.34349167 10.20189389 10.01142972 9.19991685 8.6875 8.1875 C6.20349015 7.52402369 6.20349015 7.52402369 3.6875 7.1875 C2.965625 6.98125 2.24375 6.775 1.5 6.5625 C-0.40153493 5.97403641 -0.40153493 5.97403641 -2.3125 7.1875 C-2.9725 6.8575 -3.6325 6.5275 -4.3125 6.1875 C-4.6425 6.8475 -4.9725 7.5075 -5.3125 8.1875 C-5.910625 8.435 -6.50875 8.6825 -7.125 8.9375 C-10.18532457 10.6862569 -11.41229532 13.27385282 -13.3125 16.1875 C-13.9725 16.1875 -14.6325 16.1875 -15.3125 16.1875 C-15.3125 14.8675 -15.3125 13.5475 -15.3125 12.1875 C-14.6525 12.1875 -13.9925 12.1875 -13.3125 12.1875 C-13.395 11.465625 -13.4775 10.74375 -13.5625 10 C-13.23309581 6.29420285 -11.8352551 4.85441253 -9.3125 2.1875 C-5.76163328 -0.17974448 -4.20075741 -0.05329681 0 0 Z " fill="#A92731" transform="translate(58.3125,0.8125)"/>
<path d="M0 0 C1.2065625 0.0309375 1.2065625 0.0309375 2.4375 0.0625 C2.4375 1.3825 2.4375 2.7025 2.4375 4.0625 C1.7775 4.0625 1.1175 4.0625 0.4375 4.0625 C0.7675 7.0325 1.0975 10.0025 1.4375 13.0625 C0.4475 13.5575 0.4475 13.5575 -0.5625 14.0625 C-0.2325 14.7225 0.0975 15.3825 0.4375 16.0625 C-0.5525 16.3925 -1.5425 16.7225 -2.5625 17.0625 C-2.5625 18.0525 -2.5625 19.0425 -2.5625 20.0625 C-1.5725 20.0625 -0.5825 20.0625 0.4375 20.0625 C0.4375 21.3825 0.4375 22.7025 0.4375 24.0625 C-2.2025 24.0625 -4.8425 24.0625 -7.5625 24.0625 C-7.8925 25.7125 -8.2225 27.3625 -8.5625 29.0625 C-9.5525 28.7325 -10.5425 28.4025 -11.5625 28.0625 C-12.48720553 23.34650182 -12.79173777 20.38984391 -10.5625 16.0625 C-9.9025 16.0625 -9.2425 16.0625 -8.5625 16.0625 C-8.253125 15.27875 -7.94375 14.495 -7.625 13.6875 C-6.09243537 9.90116387 -4.14698822 7.23058233 -1.5625 4.0625 C-2.2225 3.0725 -2.8825 2.0825 -3.5625 1.0625 C-2.5625 0.0625 -2.5625 0.0625 0 0 Z M-3.5625 20.0625 C-4.2225 20.7225 -4.8825 21.3825 -5.5625 22.0625 C-4.2425 21.7325 -2.9225 21.4025 -1.5625 21.0625 C-2.2225 20.7325 -2.8825 20.4025 -3.5625 20.0625 Z " fill="#585E9B" transform="translate(42.5625,8.9375)"/>
<path d="M0 0 C0.33 0.66 0.66 1.32 1 2 C2.65 2 4.3 2 6 2 C3.11342282 6.28612975 3.11342282 6.28612975 1 8 C-2.48832221 7.94087589 -4.8852937 7.55735315 -8 6 C-8 5.34 -8 4.68 -8 4 C-11.37462715 4.54723683 -13.08235 5.0549 -16 7 C-16.66 7 -17.32 7 -18 7 C-18 6.01 -18 5.02 -18 4 C-19.9375006 1.81222534 -19.9375006 1.81222534 -22 0 C-14.91383061 -1.49182513 -7.0568246 -1.8094422 0 0 Z " fill="#3268AC" transform="translate(42,2)"/>
<path d="M0 0 C0.66 0 1.32 0 2 0 C2.33 1.98 2.66 3.96 3 6 C2.01 6.495 2.01 6.495 1 7 C0.67 7.66 0.34 8.32 0 9 C-0.66 8.67 -1.32 8.34 -2 8 C-2.2475 8.969375 -2.495 9.93875 -2.75 10.9375 C-3.1625 11.948125 -3.575 12.95875 -4 14 C-6.125 14.875 -6.125 14.875 -8 15 C-8.103125 15.639375 -8.20625 16.27875 -8.3125 16.9375 C-8.539375 17.618125 -8.76625 18.29875 -9 19 C-9.99 19.33 -10.98 19.66 -12 20 C-12.66 19.34 -13.32 18.68 -14 18 C-16.3381615 18.29758419 -18.67182036 18.63239269 -21 19 C-21.99 18.67 -22.98 18.34 -24 18 C-24.33 17.01 -24.66 16.02 -25 15 C-22.69 15.33 -20.38 15.66 -18 16 C-17.67 15.34 -17.34 14.68 -17 14 C-16.01 13.67 -15.02 13.34 -14 13 C-13.67 12.01 -13.34 11.02 -13 10 C-11.1875 9.4375 -11.1875 9.4375 -9 9 C-8.34 8.649375 -7.68 8.29875 -7 7.9375 C-5 7 -5 7 -1 7 C-1.33 6.01 -1.66 5.02 -2 4 C-1.0625 1.8125 -1.0625 1.8125 0 0 Z " fill="#A8242C" transform="translate(67,38)"/>
<path d="M0 0 C2.41600943 4.34881697 3 8.03804557 3 13 C3.99 13.33 4.98 13.66 6 14 C5.34 14 4.68 14 4 14 C3.67 14.99 3.34 15.98 3 17 C2.34870203 18.34090759 1.68486725 19.67592331 1 21 C0.34 20.67 -0.32 20.34 -1 20 C-0.67 19.34 -0.34 18.68 0 18 C-0.66 17.67 -1.32 17.34 -2 17 C-1.67 16.34 -1.34 15.68 -1 15 C-1.66 14.67 -2.32 14.34 -3 14 C-2.67 13.01 -2.34 12.02 -2 11 C-2.66 10.67 -3.32 10.34 -4 10 C-3.67 9.34 -3.34 8.68 -3 8 C-3.66 7.67 -4.32 7.34 -5 7 C-5.67375452 4.911361 -6 3.19636905 -6 1 C-4.02 0.67 -2.04 0.34 0 0 Z " fill="#2D65A9" transform="translate(22,23)"/>
<path d="M0 0 C0.33 0 0.66 0 1 0 C1.33 1.98 1.66 3.96 2 6 C2.33 5.34 2.66 4.68 3 4 C3.66 4 4.32 4 5 4 C5.6875 6.8125 5.6875 6.8125 6 10 C4.5625 11.875 4.5625 11.875 3 13 C3 12.34 3 11.68 3 11 C2.01 11.495 2.01 11.495 1 12 C0.34227572 15.02934491 0.34227572 15.02934491 0 18 C-1.65 17.67 -3.3 17.34 -5 17 C-5.21192221 11.80790596 -4.5912689 7.873261 -3 3 C-2.34 3 -1.68 3 -1 3 C-0.67 2.01 -0.34 1.02 0 0 Z " fill="#CF2B36" transform="translate(66,27)"/>
<path d="M0 0 C0.33 0.99 0.66 1.98 1 3 C1.66 3 2.32 3 3 3 C1.8905928 6.48670834 0.73662334 9.77484237 -1 13 C-0.34 13 0.32 13 1 13 C3.125 14.875 3.125 14.875 5 17 C5 17.66 5 18.32 5 19 C4.01 19.33 3.02 19.66 2 20 C1.60167969 19.51789062 1.20335937 19.03578125 0.79296875 18.5390625 C0.26316406 17.90742187 -0.26664063 17.27578125 -0.8125 16.625 C-1.33457031 15.99851562 -1.85664063 15.37203125 -2.39453125 14.7265625 C-4.08225739 12.7778952 -4.08225739 12.7778952 -7 11 C-7.1875 7.875 -7.1875 7.875 -7 5 C-5.35 5 -3.7 5 -2 5 C-1.34 3.35 -0.68 1.7 0 0 Z " fill="#3B82D7" transform="translate(30,34)"/>
<path d="M0 0 C0.33 0.66 0.66 1.32 1 2 C0.67 2.66 0.34 3.32 0 4 C2.54838299 4.07078842 4.62858964 4.12380345 7.0625 3.3125 C9 3 9 3 11.25 4.4375 C11.8275 4.953125 12.405 5.46875 13 6 C9 10 9 10 6.375 10.125 C5.59125 10.08375 4.8075 10.0425 4 10 C3.34 11.32 2.68 12.64 2 14 C1.34 14 0.68 14 0 14 C-0.19335938 13.21753906 -0.38671875 12.43507813 -0.5859375 11.62890625 C-0.84632812 10.61699219 -1.10671875 9.60507812 -1.375 8.5625 C-1.63023438 7.55316406 -1.88546875 6.54382813 -2.1484375 5.50390625 C-2.72573954 2.84429676 -2.72573954 2.84429676 -5 2 C-3.35 1.34 -1.7 0.68 0 0 Z M7 4 C6.01 5.485 6.01 5.485 5 7 C5.99 7 6.98 7 8 7 C7.67 6.01 7.34 5.02 7 4 Z M1 5 C2 7 2 7 2 7 Z " fill="#8F3143" transform="translate(45,24)"/>
<path d="M0 0 C0.99 0.33 1.98 0.66 3 1 C3.33 3.31 3.66 5.62 4 8 C4.66 8 5.32 8 6 8 C7 11 7 11 7 14 C5.02 14.99 3.04 15.98 1 17 C0.67 15.35 0.34 13.7 0 12 C-0.66 12 -1.32 12 -2 12 C-2.96398647 9.1080406 -3 7.0005625 -3 4 C-2.34 3.34 -1.68 2.68 -1 2 C-0.67 1.34 -0.34 0.68 0 0 Z " fill="#992128" transform="translate(49,10)"/>
<path d="M0 0 C2.64 0 5.28 0 8 0 C8 0.33 8 0.66 8 1 C6.35 1 4.7 1 3 1 C3.66 1.33 4.32 1.66 5 2 C5.33 2.99 5.66 3.98 6 5 C9.00847418 6.22520264 9.00847418 6.22520264 12 7 C10.68 7.33 9.36 7.66 8 8 C8 9.32 8 10.64 8 12 C6.68 12.33 5.36 12.66 4 13 C4 12.34 4 11.68 4 11 C2.35666496 9.96210419 0.68756133 8.96432076 -1 8 C-1.66 7.34 -2.32 6.68 -3 6 C-2.34 6 -1.68 6 -1 6 C-0.67 4.02 -0.34 2.04 0 0 Z " fill="#94212B" transform="translate(35,33)"/>
<path d="M0 0 C0 2.97 0 5.94 0 9 C-0.66 9 -1.32 9 -2 9 C-2.33 8.01 -2.66 7.02 -3 6 C-5.50037734 8.17424117 -6.43628586 9.73045798 -7 13 C-9.10633718 11.29171079 -9.93801608 10.47851584 -10.29296875 7.73828125 C-10.25816406 6.93777344 -10.22335938 6.13726562 -10.1875 5.3125 C-10.16042969 4.50425781 -10.13335937 3.69601563 -10.10546875 2.86328125 C-10.07066406 2.24839844 -10.03585938 1.63351563 -10 1 C-6.52674819 -0.1577506 -3.63932552 -0.06866652 0 0 Z " fill="#B0242E" transform="translate(69,22)"/>
<path d="M0 0 C0.66 0 1.32 0 2 0 C2.66666667 2 3.33333333 4 4 6 C4.37125 6.94875 4.7425 7.8975 5.125 8.875 C6.03605293 12.12876047 5.93937591 13.8061219 5 17 C4.67 16.34 4.34 15.68 4 15 C3.01 15 2.02 15 1 15 C1 15.66 1 16.32 1 17 C0.34 17 -0.32 17 -1 17 C-0.979375 15.7625 -0.95875 14.525 -0.9375 13.25 C-0.93233319 10.3359175 -1.06984442 7.79046673 -2 5 C-1.34 5 -0.68 5 0 5 C0 3.35 0 1.7 0 0 Z " fill="#A4222D" transform="translate(74,6)"/>
<path d="M0 0 C1.2065625 0.0309375 1.2065625 0.0309375 2.4375 0.0625 C2.4375 1.3825 2.4375 2.7025 2.4375 4.0625 C1.7775 4.0625 1.1175 4.0625 0.4375 4.0625 C0.7675 7.0325 1.0975 10.0025 1.4375 13.0625 C0.4475 13.5575 0.4475 13.5575 -0.5625 14.0625 C-0.2325 14.7225 0.0975 15.3825 0.4375 16.0625 C-2.44825819 15.66446439 -3.38439513 15.27240931 -5.3125 13 C-5.725 12.360625 -6.1375 11.72125 -6.5625 11.0625 C-5.24471547 8.42693095 -3.42030102 6.33980447 -1.5625 4.0625 C-2.2225 3.0725 -2.8825 2.0825 -3.5625 1.0625 C-2.5625 0.0625 -2.5625 0.0625 0 0 Z " fill="#6B446A" transform="translate(42.5625,8.9375)"/>
<path d="M0 0 C1.65 0.33 3.3 0.66 5 1 C4.67 4.63 4.34 8.26 4 12 C3.67 11.34 3.34 10.68 3 10 C0.47266765 9.34444881 0.47266765 9.34444881 -2 9 C-2.125 5.625 -2.125 5.625 -2 2 C-1.34 1.34 -0.68 0.68 0 0 Z " fill="#B62732" transform="translate(75,22)"/>
<path d="M0 0 C2.96175123 0.61277612 4.38058783 1.25372522 7 3 C7.33957665 6.00767886 7.54493987 8.09747814 7 11 C5 13.5 5 13.5 3 15 C1.8125 12.8125 1.8125 12.8125 1 10 C2.375 7.1875 2.375 7.1875 4 5 C1.525 4.01 1.525 4.01 -1 3 C-0.67 2.01 -0.34 1.02 0 0 Z " fill="#D52C38" transform="translate(53,24)"/>
<path d="M0 0 C0.721875 0.268125 1.44375 0.53625 2.1875 0.8125 C-0.09788605 4.90213819 -2.76956926 8.27612104 -5.8125 11.8125 C-6.4725 11.4825 -7.1325 11.1525 -7.8125 10.8125 C-8.28651764 6.73594826 -8.12270611 5.22906249 -5.625 1.875 C-2.8125 -0.1875 -2.8125 -0.1875 0 0 Z " fill="#3E87E4" transform="translate(22.8125,4.1875)"/>
<path d="M0 0 C0.99 0.33 1.98 0.66 3 1 C3 2.32 3 3.64 3 5 C3.99 5.33 4.98 5.66 6 6 C5.34 6 4.68 6 4 6 C3.67 6.99 3.34 7.98 3 9 C2.34870203 10.34090759 1.68486725 11.67592331 1 13 C0.34 12.67 -0.32 12.34 -1 12 C-0.67 11.34 -0.34 10.68 0 10 C-0.66 9.67 -1.32 9.34 -2 9 C-1.67 8.34 -1.34 7.68 -1 7 C-1.66 6.67 -2.32 6.34 -3 6 C-2.625 3.5625 -2.625 3.5625 -2 1 C-1.34 0.67 -0.68 0.34 0 0 Z " fill="#326CB9" transform="translate(22,31)"/>
<path d="M0 0 C4 4.75 4 4.75 4 7 C3.01 7.33 2.02 7.66 1 8 C0.34 7.34 -0.32 6.68 -1 6 C-3.3381615 6.29758419 -5.67182036 6.63239269 -8 7 C-8.99 6.67 -9.98 6.34 -11 6 C-11.33 5.01 -11.66 4.02 -12 3 C-9.69 3.33 -7.38 3.66 -5 4 C-4.67 3.34 -4.34 2.68 -4 2 C-1.9375 0.875 -1.9375 0.875 0 0 Z " fill="#652331" transform="translate(54,50)"/>
<path d="M0 0 C0.99 0.33 1.98 0.66 3 1 C2.34 1 1.68 1 1 1 C1 1.66 1 2.32 1 3 C1.66 3 2.32 3 3 3 C1.87327121 6.38018638 0.51913637 7.5572011 -2 10 C-2.99 11.485 -2.99 11.485 -4 13 C-4.66 13 -5.32 13 -6 13 C-6 11.68 -6 10.36 -6 9 C-5.34 9 -4.68 9 -4 9 C-4.0825 8.2575 -4.165 7.515 -4.25 6.75 C-3.92894816 3.21842973 -2.64734383 2.23369636 0 0 Z " fill="#C92F43" transform="translate(49,4)"/>
<path d="M0 0 C2.5371542 1.2685771 3.49693317 2.60875731 5 5 C5 6.32 5 7.64 5 9 C4.01 9.33 3.02 9.66 2 10 C0.02 7.69 -1.96 5.38 -4 3 C-3 1 -3 1 0 0 Z " fill="#BC2632" transform="translate(69,2)"/>
<path d="M0 0 C0.99 0 1.98 0 3 0 C3.33 1.32 3.66 2.64 4 4 C4.66 4 5.32 4 6 4 C4.57668332 6.84663337 2.84663337 8.57668332 0 10 C0 9.01 0 8.02 0 7 C-0.66 7 -1.32 7 -2 7 C-3.625 5 -3.625 5 -5 3 C-3.35 2.67 -1.7 2.34 0 2 C0 1.34 0 0.68 0 0 Z " fill="#A6232C" transform="translate(52,35)"/>
<path d="M0 0 C0.99 0.33 1.98 0.66 3 1 C2.979375 1.7425 2.95875 2.485 2.9375 3.25 C2.89759189 5.94167789 2.89759189 5.94167789 3.5625 8.25 C3.7790625 9.11625 3.7790625 9.11625 4 10 C3 11 3 11 -0.5625 11.0625 C-1.696875 11.041875 -2.83125 11.02125 -4 11 C-3.01 10.34 -2.02 9.68 -1 9 C-1.309375 7.824375 -1.309375 7.824375 -1.625 6.625 C-1.74875 5.75875 -1.8725 4.8925 -2 4 C-1.34 3.34 -0.68 2.68 0 2 C0 1.34 0 0.68 0 0 Z " fill="#336AB1" transform="translate(13,9)"/>
<path d="M0 0 C0.99 0.33 1.98 0.66 3 1 C3.05395478 2.62463842 3.09277195 4.24978541 3.125 5.875 C3.14820313 6.77992187 3.17140625 7.68484375 3.1953125 8.6171875 C3 11 3 11 1 13 C0.34 12.67 -0.32 12.34 -1 12 C-2.08209933 7.31090292 -2.21980248 4.30902834 0 0 Z " fill="#3367AF" transform="translate(32,25)"/>
<path d="M0 0 C0.66 0.33 1.32 0.66 2 1 C2.20140476 4.62528568 1.85776765 6.86501708 0 10 C-1.98 9.34 -3.96 8.68 -6 8 C-5.67 7.01 -5.34 6.02 -5 5 C-3.66666667 4.33333333 -2.33333333 3.66666667 -1 3 C-0.67 2.01 -0.34 1.02 0 0 Z " fill="#9C222B" transform="translate(85,37)"/>
<path d="M0 0 C0.99 0.33 1.98 0.66 3 1 C3.99 1 4.98 1 6 1 C5.67 3.31 5.34 5.62 5 8 C3.35 7.67 1.7 7.34 0 7 C0 4.69 0 2.38 0 0 Z " fill="#C12833" transform="translate(61,37)"/>
<path d="M0 0 C0.99 0.33 1.98 0.66 3 1 C3 1.66 3 2.32 3 3 C4.32 3.33 5.64 3.66 7 4 C6.236875 4.268125 5.47375 4.53625 4.6875 4.8125 C2.09503074 5.95800967 0.91184456 6.99711522 -1 9 C-1.66 9 -2.32 9 -3 9 C-3 7.02 -3 5.04 -3 3 C-2.01 2.67 -1.02 2.34 0 2 C0 1.34 0 0.68 0 0 Z " fill="#3366A9" transform="translate(6,19)"/>
<path d="M0 0 C0.99 0.33 1.98 0.66 3 1 C2.835 1.61875 2.67 2.2375 2.5 2.875 C1.92365356 4.96063386 1.92365356 4.96063386 2 7 C2 7.66 2 8.32 2 9 C0.02 9 -1.96 9 -4 9 C-3.25 4.25 -3.25 4.25 -1 2 C-0.67 1.34 -0.34 0.68 0 0 Z " fill="#7B1D25" transform="translate(49,10)"/>
<path d="M0 0 C2.05078125 0.03255208 4.1015625 0.06510417 6.15234375 0.09765625 C4.50234375 2.07765625 2.85234375 4.05765625 1.15234375 6.09765625 C0.16234375 5.76765625 -0.82765625 5.43765625 -1.84765625 5.09765625 C-2.59765625 3.09765625 -2.59765625 3.09765625 -2.84765625 1.09765625 C-1.84765625 0.09765625 -1.84765625 0.09765625 0 0 Z " fill="#30629F" transform="translate(41.84765625,3.90234375)"/>
<path d="M0 0 C2.64 0 5.28 0 8 0 C8 0.33 8 0.66 8 1 C6.35 1 4.7 1 3 1 C3.66 1.33 4.32 1.66 5 2 C5 2.66 5 3.32 5 4 C2.69 5.32 0.38 6.64 -2 8 C-2.33 7.34 -2.66 6.68 -3 6 C-2.34 6 -1.68 6 -1 6 C-0.67 4.02 -0.34 2.04 0 0 Z " fill="#732A37" transform="translate(35,33)"/>
<path d="M0 0 C2.1875 1.4375 2.1875 1.4375 4 3 C2.1875 3.6875 2.1875 3.6875 0 4 C-1.75 2.5625 -1.75 2.5625 -3 1 C-2.01 0.67 -1.02 0.34 0 0 Z M-2 4 C0.64 4 3.28 4 6 4 C6 4.99 6 5.98 6 7 C4.68 6.67 3.36 6.34 2 6 C1.67 6.66 1.34 7.32 1 8 C0.01 7.34 -0.98 6.68 -2 6 C-2 5.34 -2 4.68 -2 4 Z " fill="#9E1E29" transform="translate(52,1)"/>
<path d="M0 0 C3.3 0 6.6 0 10 0 C10 0.99 10 1.98 10 3 C2.25 3.125 2.25 3.125 0 2 C0 1.34 0 0.68 0 0 Z " fill="#3A85E5" transform="translate(26,3)"/>
<path d="M0 0 C0.99 0 1.98 0 3 0 C3 0.66 3 1.32 3 2 C3.66 2.33 4.32 2.66 5 3 C4.67 3.66 4.34 4.32 4 5 C4.66 5.33 5.32 5.66 6 6 C4.35 6.33 2.7 6.66 1 7 C0 2.25 0 2.25 0 0 Z " fill="#3D86E6" transform="translate(23,39)"/>
<path d="M0 0 C1.65 0.33 3.3 0.66 5 1 C3.19587357 4.26460973 2.16605307 5.88929795 -1 8 C-1.93065133 5.39417629 -2.14917407 4.35801776 -1.0625 1.75 C-0.711875 1.1725 -0.36125 0.595 0 0 Z " fill="#3A7ED4" transform="translate(20,4)"/>
<path d="M0 0 C2.125 0.375 2.125 0.375 4 1 C4 1.66 4 2.32 4 3 C3.01 3.66 2.02 4.32 1 5 C0.67 5.99 0.34 6.98 0 8 C-0.66 8 -1.32 8 -2 8 C-2.125 5.125 -2.125 5.125 -2 2 C-1.34 1.34 -0.68 0.68 0 0 Z " fill="#D32C39" transform="translate(75,22)"/>
<path d="M0 0 C1.98 0 3.96 0 6 0 C6 0.99 6 1.98 6 3 C6.66 3 7.32 3 8 3 C8.33 3.99 8.66 4.98 9 6 C7.35 6.33 5.7 6.66 4 7 C4 6.01 4 5.02 4 4 C2.0624994 1.81222534 2.0624994 1.81222534 0 0 Z " fill="#2A5A93" transform="translate(20,2)"/>
<path d="M0 0 C0.33 0.66 0.66 1.32 1 2 C-3.06368679 2.77403558 -6.86425173 3.0984702 -11 3 C-8.89427904 -1.21144191 -4.11694326 -0.07767817 0 0 Z " fill="#CD2934" transform="translate(63,3)"/>
<path d="M0 0 C4 4.75 4 4.75 4 7 C3.01 7.33 2.02 7.66 1 8 C-0.32 6.35 -1.64 4.7 -3 3 C-2.01 2.01 -1.02 1.02 0 0 Z " fill="#812F3B" transform="translate(54,50)"/>
<path d="M0 0 C2.96175123 0.61277612 4.38058783 1.25372522 7 3 C5 5 5 5 3 6 C0.875 5.0625 0.875 5.0625 -1 4 C-0.01 4 0.98 4 2 4 C1.67 3.34 1.34 2.68 1 2 C0.01 2.495 0.01 2.495 -1 3 C-0.67 2.01 -0.34 1.02 0 0 Z " fill="#852027" transform="translate(51,27)"/>
<path d="M0 0 C1.875 0.3125 1.875 0.3125 4 1 C4.66 1.99 5.32 2.98 6 4 C4.1875 4.625 4.1875 4.625 2 5 C1.01 4.34 0.02 3.68 -1 3 C-0.67 2.01 -0.34 1.02 0 0 Z " fill="#BC2832" transform="translate(53,24)"/>
<path d="M0 0 C1.67542976 0.28604898 3.34385343 0.61781233 5 1 C5 2.32 5 3.64 5 5 C3.35 5 1.7 5 0 5 C0.33 4.01 0.66 3.02 1 2 C0.34 1.67 -0.32 1.34 -1 1 C-0.67 0.67 -0.34 0.34 0 0 Z " fill="#A4202E" transform="translate(54,48)"/>
<path d="M0 0 C0.99 0.66 1.98 1.32 3 2 C2.67 2.99 2.34 3.98 2 5 C0.35 4.67 -1.3 4.34 -3 4 C-3 3.34 -3 2.68 -3 2 C-2.01 1.34 -1.02 0.68 0 0 Z " fill="#D22C39" transform="translate(38,37)"/>
<path d="M0 0 C1.61949011 2.57213134 2.04408751 3.67669159 1.625 6.75 C1.41875 7.4925 1.2125 8.235 1 9 C0.67 8.34 0.34 7.68 0 7 C-0.66 7 -1.32 7 -2 7 C-1.42415568 4.61435923 -0.77772405 2.33317216 0 0 Z " fill="#A72831" transform="translate(78,14)"/>
<path d="M0 0 C1.53445094 3.06890187 0.54984289 5.70094266 0 9 C-0.99 9.33 -1.98 9.66 -3 10 C-3 8.68 -3 7.36 -3 6 C-2.34 6 -1.68 6 -1 6 C-1.0309375 4.7934375 -1.0309375 4.7934375 -1.0625 3.5625 C-1 1 -1 1 0 0 Z " fill="#B23F62" transform="translate(46,7)"/>
<path d="M0 0 C0.66 0.33 1.32 0.66 2 1 C2 3 2 5 2 7 C0.35 6.67 -1.3 6.34 -3 6 C-2.625 3.5625 -2.625 3.5625 -2 1 C-1.34 0.67 -0.68 0.34 0 0 Z " fill="#941E29" transform="translate(65,2)"/>
<path d="M0 0 C0.99 0.33 1.98 0.66 3 1 C2.34 1.66 1.68 2.32 1 3 C0.3574765 5.06874034 0.3574765 5.06874034 0 7 C-0.66 6.67 -1.32 6.34 -2 6 C-1.67 5.34 -1.34 4.68 -1 4 C-1.66 3.67 -2.32 3.34 -3 3 C-2.01 2.01 -1.02 1.02 0 0 Z " fill="#D32F3D" transform="translate(60,45)"/>
<path d="M0 0 C0.99 0.66 1.98 1.32 3 2 C2.6875 3.9375 2.6875 3.9375 2 6 C1.01 6.33 0.02 6.66 -1 7 C-2 4 -2 4 -1.0625 1.8125 C-0.5365625 0.9153125 -0.5365625 0.9153125 0 0 Z " fill="#7D1E24" transform="translate(71,24)"/>
<path d="M0 0 C1.32 0.99 2.64 1.98 4 3 C3.67 3.99 3.34 4.98 3 6 C1.35 5.01 -0.3 4.02 -2 3 C-1.34 2.01 -0.68 1.02 0 0 Z " fill="#D22B37" transform="translate(70,4)"/>
<path d="M0 0 C0.66 0.33 1.32 0.66 2 1 C1.01 1.66 0.02 2.32 -1 3 C-0.67 2.01 -0.34 1.02 0 0 Z " fill="#000000" transform="translate(16,5)"/>
<path d="" fill="#000000" transform="translate(0,0)"/>
<path d="" fill="#000000" transform="translate(0,0)"/>
<path d="" fill="#000000" transform="translate(0,0)"/>
<path d="" fill="#000000" transform="translate(0,0)"/>
<path d="" fill="#000000" transform="translate(0,0)"/>
<path d="" fill="#000000" transform="translate(0,0)"/>
<path d="" fill="#000000" transform="translate(0,0)"/>
<path d="" fill="#000000" transform="translate(0,0)"/>
<path d="" fill="#000000" transform="translate(0,0)"/>
<path d="" fill="#000000" transform="translate(0,0)"/>
<path d="" fill="#000000" transform="translate(0,0)"/>
<path d="" fill="#000000" transform="translate(0,0)"/>
<path d="" fill="#000000" transform="translate(0,0)"/>
<path d="" fill="#000000" transform="translate(0,0)"/>
<path d="" fill="#000000" transform="translate(0,0)"/>
<path d="" fill="#000000" transform="translate(0,0)"/>
<path d="" fill="#000000" transform="translate(0,0)"/>
<path d="" fill="#000000" transform="translate(0,0)"/>
<path d="" fill="#000000" transform="translate(0,0)"/>
<path d="" fill="#000000" transform="translate(0,0)"/>
<path d="" fill="#000000" transform="translate(0,0)"/>
<path d="" fill="#000000" transform="translate(0,0)"/>
<path d="" fill="#000000" transform="translate(0,0)"/>
<path d="" fill="#000000" transform="translate(0,0)"/>
<path d="" fill="#000000" transform="translate(0,0)"/>
<path d="" fill="#000000" transform="translate(0,0)"/>
<path d="" fill="#000000" transform="translate(0,0)"/>
<path d="" fill="#000000" transform="translate(0,0)"/>
<path d="" fill="#000000" transform="translate(0,0)"/>
<path d="" fill="#000000" transform="translate(0,0)"/>
<path d="" fill="#000000" transform="translate(0,0)"/>
<path d="" fill="#000000" transform="translate(0,0)"/>
<path d="" fill="#000000" transform="translate(0,0)"/>
<path d="" fill="#000000" transform="translate(0,0)"/>
<path d="" fill="#000000" transform="translate(0,0)"/>
<path d="" fill="#000000" transform="translate(0,0)"/>
<path d="" fill="#000000" transform="translate(0,0)"/>
<path d="" fill="#000000" transform="translate(0,0)"/>
<path d="" fill="#000000" transform="translate(0,0)"/>
<path d="" fill="#000000" transform="translate(0,0)"/>
<path d="" fill="#000000" transform="translate(0,0)"/>
<path d="" fill="#000000" transform="translate(0,0)"/>
<path d="" fill="#000000" transform="translate(0,0)"/>
<path d="" fill="#000000" transform="translate(0,0)"/>
<path d="" fill="#000000" transform="translate(0,0)"/>
<path d="" fill="#000000" transform="translate(0,0)"/>
<path d="" fill="#000000" transform="translate(0,0)"/>
<path d="" fill="#000000" transform="translate(0,0)"/>
<path d="" fill="#000000" transform="translate(0,0)"/>
<path d="" fill="#000000" transform="translate(0,0)"/>
<path d="" fill="#000000" transform="translate(0,0)"/>
<path d="" fill="#000000" transform="translate(0,0)"/>
<path d="" fill="#000000" transform="translate(0,0)"/>
<path d="" fill="#000000" transform="translate(0,0)"/>
<path d="" fill="#000000" transform="translate(0,0)"/>
<path d="" fill="#000000" transform="translate(0,0)"/>
<path d="" fill="#000000" transform="translate(0,0)"/>
<path d="" fill="#000000" transform="translate(0,0)"/>
<path d="" fill="#000000" transform="translate(0,0)"/>
<path d="" fill="#000000" transform="translate(0,0)"/>
<path d="" fill="#000000" transform="translate(0,0)"/>
<path d="" fill="#000000" transform="translate(0,0)"/>
<path d="" fill="#000000" transform="translate(0,0)"/>
<path d="" fill="#000000" transform="translate(0,0)"/>
<path d="" fill="#000000" transform="translate(0,0)"/>
<path d="" fill="#000000" transform="translate(0,0)"/>
<path d="" fill="#000000" transform="translate(0,0)"/>
<path d="" fill="#000000" transform="translate(0,0)"/>
<path d="" fill="#000000" transform="translate(0,0)"/>
<path d="" fill="#000000" transform="translate(0,0)"/>
<path d="" fill="#000000" transform="translate(0,0)"/>
<path d="" fill="#000000" transform="translate(0,0)"/>
<path d="" fill="#000000" transform="translate(0,0)"/>
<path d="" fill="#000000" transform="translate(0,0)"/>
<path d="" fill="#000000" transform="translate(0,0)"/>
<path d="" fill="#000000" transform="translate(0,0)"/>
<path d="" fill="#000000" transform="translate(0,0)"/>
<path d="" fill="#000000" transform="translate(0,0)"/>
<path d="" fill="#000000" transform="translate(0,0)"/>
<path d="" fill="#000000" transform="translate(0,0)"/>
<path d="" fill="#000000" transform="translate(0,0)"/>
<path d="" fill="#000000" transform="translate(0,0)"/>
<path d="" fill="#000000" transform="translate(0,0)"/>
<path d="" fill="#000000" transform="translate(0,0)"/>
<path d="" fill="#000000" transform="translate(0,0)"/>
<path d="" fill="#000000" transform="translate(0,0)"/>
<path d="" fill="#000000" transform="translate(0,0)"/>
<path d="" fill="#000000" transform="translate(0,0)"/>
<path d="" fill="#000000" transform="translate(0,0)"/>
<path d="" fill="#000000" transform="translate(0,0)"/>
<path d="" fill="#000000" transform="translate(0,0)"/>
<path d="" fill="#000000" transform="translate(0,0)"/>
<path d="" fill="#000000" transform="translate(0,0)"/>
<path d="" fill="#000000" transform="translate(0,0)"/>
<path d="" fill="#000000" transform="translate(0,0)"/>
<path d="" fill="#000000" transform="translate(0,0)"/>
<path d="" fill="#000000" transform="translate(0,0)"/>
<path d="" fill="#000000" transform="translate(0,0)"/>
<path d="" fill="#000000" transform="translate(0,0)"/>
<path d="" fill="#000000" transform="translate(0,0)"/>
<path d="" fill="#000000" transform="translate(0,0)"/>
<path d="" fill="#000000" transform="translate(0,0)"/>
<path d="" fill="#000000" transform="translate(0,0)"/>
<path d="" fill="#000000" transform="translate(0,0)"/>
<path d="" fill="#000000" transform="translate(0,0)"/>
<path d="" fill="#000000" transform="translate(0,0)"/>
<path d="" fill="#000000" transform="translate(0,0)"/>
<path d="" fill="#000000" transform="translate(0,0)"/>
<path d="" fill="#000000" transform="translate(0,0)"/>
<path d="" fill="#000000" transform="translate(0,0)"/>
<path d="" fill="#000000" transform="translate(0,0)"/>
<path d="" fill="#000000" transform="translate(0,0)"/>
<path d="" fill="#000000" transform="translate(0,0)"/>
<path d="" fill="#000000" transform="translate(0,0)"/>
<path d="" fill="#000000" transform="translate(0,0)"/>
<path d="" fill="#000000" transform="translate(0,0)"/>
<path d="" fill="#000000" transform="translate(0,0)"/>
<path d="" fill="#000000" transform="translate(0,0)"/>
<path d="" fill="#000000" transform="translate(0,0)"/>
<path d="" fill="#000000" transform="translate(0,0)"/>
<path d="" fill="#000000" transform="translate(0,0)"/>
</svg>
